<mxfile host="app.diagrams.net" agent="Mozilla/5.0 (Windows NT 10.0; Win64; x64) AppleWebKit/537.36 (KHTML, like Gecko) Chrome/134.0.0.0 Safari/537.36" version="26.2.3">
  <diagram id="R2lEEEUBdFMjLlhIrx00" name="Page-1">
    <mxGraphModel dx="1126" dy="1867" grid="1" gridSize="10" guides="1" tooltips="1" connect="1" arrows="0" fold="1" page="1" pageScale="1" pageWidth="850" pageHeight="1100" math="0" shadow="0" extFonts="Permanent Marker^https://fonts.googleapis.com/css?family=Permanent+Marker">
      <root>
        <mxCell id="0" />
        <mxCell id="1" parent="0" />
        <mxCell id="DGyCyMm6i7E1QIW6mR5m-5" value="EMPLOYEE" style="whiteSpace=wrap;html=1;align=center;" parent="1" vertex="1">
          <mxGeometry x="400" y="180" width="150" height="50" as="geometry" />
        </mxCell>
        <mxCell id="DGyCyMm6i7E1QIW6mR5m-7" value="Fname" style="ellipse;whiteSpace=wrap;html=1;align=center;" parent="1" vertex="1">
          <mxGeometry y="-80" width="100" height="40" as="geometry" />
        </mxCell>
        <mxCell id="DGyCyMm6i7E1QIW6mR5m-8" value="Lname" style="ellipse;whiteSpace=wrap;html=1;align=center;" parent="1" vertex="1">
          <mxGeometry x="220" y="-80" width="100" height="40" as="geometry" />
        </mxCell>
        <mxCell id="DGyCyMm6i7E1QIW6mR5m-9" value="" style="endArrow=none;html=1;rounded=0;" parent="1" source="DGyCyMm6i7E1QIW6mR5m-7" target="DGyCyMm6i7E1QIW6mR5m-14" edge="1">
          <mxGeometry relative="1" as="geometry">
            <mxPoint x="330" y="190" as="sourcePoint" />
            <mxPoint x="490" y="190" as="targetPoint" />
          </mxGeometry>
        </mxCell>
        <mxCell id="DGyCyMm6i7E1QIW6mR5m-10" value="" style="endArrow=none;html=1;rounded=0;entryX=0.5;entryY=1;entryDx=0;entryDy=0;" parent="1" source="DGyCyMm6i7E1QIW6mR5m-14" target="DGyCyMm6i7E1QIW6mR5m-8" edge="1">
          <mxGeometry relative="1" as="geometry">
            <mxPoint x="160" y="80" as="sourcePoint" />
            <mxPoint x="320" y="80" as="targetPoint" />
          </mxGeometry>
        </mxCell>
        <mxCell id="DGyCyMm6i7E1QIW6mR5m-11" value="ID" style="ellipse;whiteSpace=wrap;html=1;align=center;fontStyle=4;" parent="1" vertex="1">
          <mxGeometry width="100" height="40" as="geometry" />
        </mxCell>
        <mxCell id="DGyCyMm6i7E1QIW6mR5m-12" value="" style="endArrow=none;html=1;rounded=0;exitX=0.5;exitY=1;exitDx=0;exitDy=0;" parent="1" source="DGyCyMm6i7E1QIW6mR5m-11" target="DGyCyMm6i7E1QIW6mR5m-5" edge="1">
          <mxGeometry relative="1" as="geometry">
            <mxPoint x="330" y="190" as="sourcePoint" />
            <mxPoint x="150" y="190" as="targetPoint" />
          </mxGeometry>
        </mxCell>
        <mxCell id="DGyCyMm6i7E1QIW6mR5m-14" value="Name" style="ellipse;whiteSpace=wrap;html=1;align=center;" parent="1" vertex="1">
          <mxGeometry x="110" width="100" height="40" as="geometry" />
        </mxCell>
        <mxCell id="DGyCyMm6i7E1QIW6mR5m-15" value="" style="endArrow=none;html=1;rounded=0;entryX=0.5;entryY=1;entryDx=0;entryDy=0;" parent="1" source="DGyCyMm6i7E1QIW6mR5m-5" target="DGyCyMm6i7E1QIW6mR5m-14" edge="1">
          <mxGeometry relative="1" as="geometry">
            <mxPoint x="100" y="190" as="sourcePoint" />
            <mxPoint x="260" y="190" as="targetPoint" />
          </mxGeometry>
        </mxCell>
        <mxCell id="DGyCyMm6i7E1QIW6mR5m-16" value="Mname" style="ellipse;whiteSpace=wrap;html=1;align=center;" parent="1" vertex="1">
          <mxGeometry x="110" y="-80" width="100" height="40" as="geometry" />
        </mxCell>
        <mxCell id="DGyCyMm6i7E1QIW6mR5m-17" value="" style="endArrow=none;html=1;rounded=0;" parent="1" source="DGyCyMm6i7E1QIW6mR5m-16" target="DGyCyMm6i7E1QIW6mR5m-14" edge="1">
          <mxGeometry relative="1" as="geometry">
            <mxPoint x="330" y="20" as="sourcePoint" />
            <mxPoint x="490" y="20" as="targetPoint" />
          </mxGeometry>
        </mxCell>
        <mxCell id="DGyCyMm6i7E1QIW6mR5m-19" value="SSN" style="ellipse;whiteSpace=wrap;html=1;align=center;fontStyle=4;" parent="1" vertex="1">
          <mxGeometry x="220" width="100" height="40" as="geometry" />
        </mxCell>
        <mxCell id="DGyCyMm6i7E1QIW6mR5m-20" value="" style="endArrow=none;html=1;rounded=0;" parent="1" source="DGyCyMm6i7E1QIW6mR5m-5" target="DGyCyMm6i7E1QIW6mR5m-19" edge="1">
          <mxGeometry relative="1" as="geometry">
            <mxPoint x="290" y="20" as="sourcePoint" />
            <mxPoint x="450" y="20" as="targetPoint" />
          </mxGeometry>
        </mxCell>
        <mxCell id="DGyCyMm6i7E1QIW6mR5m-21" value="Sex" style="ellipse;whiteSpace=wrap;html=1;align=center;" parent="1" vertex="1">
          <mxGeometry x="330" width="100" height="40" as="geometry" />
        </mxCell>
        <mxCell id="DGyCyMm6i7E1QIW6mR5m-22" value="" style="endArrow=none;html=1;rounded=0;" parent="1" source="DGyCyMm6i7E1QIW6mR5m-5" target="DGyCyMm6i7E1QIW6mR5m-21" edge="1">
          <mxGeometry relative="1" as="geometry">
            <mxPoint x="320" y="20" as="sourcePoint" />
            <mxPoint x="480" y="20" as="targetPoint" />
          </mxGeometry>
        </mxCell>
        <mxCell id="DGyCyMm6i7E1QIW6mR5m-23" value="Address" style="ellipse;shape=doubleEllipse;margin=3;whiteSpace=wrap;html=1;align=center;" parent="1" vertex="1">
          <mxGeometry x="440" width="100" height="40" as="geometry" />
        </mxCell>
        <mxCell id="DGyCyMm6i7E1QIW6mR5m-24" value="" style="endArrow=none;html=1;rounded=0;" parent="1" source="DGyCyMm6i7E1QIW6mR5m-5" target="DGyCyMm6i7E1QIW6mR5m-23" edge="1">
          <mxGeometry relative="1" as="geometry">
            <mxPoint x="300" y="190" as="sourcePoint" />
            <mxPoint x="460" y="190" as="targetPoint" />
          </mxGeometry>
        </mxCell>
        <mxCell id="DGyCyMm6i7E1QIW6mR5m-25" value="Bdate" style="ellipse;whiteSpace=wrap;html=1;align=center;" parent="1" vertex="1">
          <mxGeometry x="550" width="100" height="40" as="geometry" />
        </mxCell>
        <mxCell id="DGyCyMm6i7E1QIW6mR5m-29" value="" style="endArrow=none;html=1;rounded=0;" parent="1" source="DGyCyMm6i7E1QIW6mR5m-5" target="DGyCyMm6i7E1QIW6mR5m-25" edge="1">
          <mxGeometry relative="1" as="geometry">
            <mxPoint x="370" y="110" as="sourcePoint" />
            <mxPoint x="530" y="110" as="targetPoint" />
          </mxGeometry>
        </mxCell>
        <mxCell id="DGyCyMm6i7E1QIW6mR5m-31" value="Salary" style="ellipse;whiteSpace=wrap;html=1;align=center;" parent="1" vertex="1">
          <mxGeometry x="770" width="100" height="40" as="geometry" />
        </mxCell>
        <mxCell id="DGyCyMm6i7E1QIW6mR5m-32" value="" style="endArrow=none;html=1;rounded=0;" parent="1" source="DGyCyMm6i7E1QIW6mR5m-5" target="DGyCyMm6i7E1QIW6mR5m-31" edge="1">
          <mxGeometry relative="1" as="geometry">
            <mxPoint x="510" y="100" as="sourcePoint" />
            <mxPoint x="670" y="100" as="targetPoint" />
          </mxGeometry>
        </mxCell>
        <mxCell id="DGyCyMm6i7E1QIW6mR5m-33" value="Phone_num" style="ellipse;whiteSpace=wrap;html=1;align=center;" parent="1" vertex="1">
          <mxGeometry x="660" width="100" height="40" as="geometry" />
        </mxCell>
        <mxCell id="DGyCyMm6i7E1QIW6mR5m-34" value="" style="endArrow=none;html=1;rounded=0;" parent="1" source="DGyCyMm6i7E1QIW6mR5m-5" target="DGyCyMm6i7E1QIW6mR5m-33" edge="1">
          <mxGeometry relative="1" as="geometry">
            <mxPoint x="570" y="120" as="sourcePoint" />
            <mxPoint x="730" y="120" as="targetPoint" />
          </mxGeometry>
        </mxCell>
        <mxCell id="LaG2kn6Hpm8LccnMGh0O-1" value="HireDate" style="ellipse;whiteSpace=wrap;html=1;align=center;" parent="1" vertex="1">
          <mxGeometry x="880" width="100" height="40" as="geometry" />
        </mxCell>
        <mxCell id="LaG2kn6Hpm8LccnMGh0O-2" value="" style="endArrow=none;html=1;rounded=0;" parent="1" source="DGyCyMm6i7E1QIW6mR5m-5" target="LaG2kn6Hpm8LccnMGh0O-1" edge="1">
          <mxGeometry relative="1" as="geometry">
            <mxPoint x="690" y="110" as="sourcePoint" />
            <mxPoint x="850" y="110" as="targetPoint" />
          </mxGeometry>
        </mxCell>
        <mxCell id="LaG2kn6Hpm8LccnMGh0O-3" value="Department" style="whiteSpace=wrap;html=1;align=center;" parent="1" vertex="1">
          <mxGeometry x="1330" y="180" width="150" height="50" as="geometry" />
        </mxCell>
        <mxCell id="LaG2kn6Hpm8LccnMGh0O-5" value="DepID" style="ellipse;whiteSpace=wrap;html=1;align=center;fontStyle=4;" parent="1" vertex="1">
          <mxGeometry x="1240" width="100" height="40" as="geometry" />
        </mxCell>
        <mxCell id="LaG2kn6Hpm8LccnMGh0O-6" value="DepName" style="ellipse;whiteSpace=wrap;html=1;align=center;fontStyle=4;" parent="1" vertex="1">
          <mxGeometry x="1350" width="100" height="40" as="geometry" />
        </mxCell>
        <mxCell id="LaG2kn6Hpm8LccnMGh0O-7" value="Location" style="ellipse;shape=doubleEllipse;margin=3;whiteSpace=wrap;html=1;align=center;" parent="1" vertex="1">
          <mxGeometry x="1460" width="100" height="40" as="geometry" />
        </mxCell>
        <mxCell id="LaG2kn6Hpm8LccnMGh0O-8" value="" style="endArrow=none;html=1;rounded=0;" parent="1" source="LaG2kn6Hpm8LccnMGh0O-5" target="LaG2kn6Hpm8LccnMGh0O-3" edge="1">
          <mxGeometry relative="1" as="geometry">
            <mxPoint x="320" y="510" as="sourcePoint" />
            <mxPoint x="480" y="510" as="targetPoint" />
          </mxGeometry>
        </mxCell>
        <mxCell id="LaG2kn6Hpm8LccnMGh0O-9" value="" style="endArrow=none;html=1;rounded=0;" parent="1" source="LaG2kn6Hpm8LccnMGh0O-6" target="LaG2kn6Hpm8LccnMGh0O-3" edge="1">
          <mxGeometry relative="1" as="geometry">
            <mxPoint x="450" y="510" as="sourcePoint" />
            <mxPoint x="610" y="510" as="targetPoint" />
          </mxGeometry>
        </mxCell>
        <mxCell id="LaG2kn6Hpm8LccnMGh0O-10" value="" style="endArrow=none;html=1;rounded=0;" parent="1" source="LaG2kn6Hpm8LccnMGh0O-7" target="LaG2kn6Hpm8LccnMGh0O-3" edge="1">
          <mxGeometry relative="1" as="geometry">
            <mxPoint x="550" y="510" as="sourcePoint" />
            <mxPoint x="710" y="510" as="targetPoint" />
          </mxGeometry>
        </mxCell>
        <mxCell id="L0dqfXICZT49HhjWpMW9-1" value="Works_for" style="shape=rhombus;perimeter=rhombusPerimeter;whiteSpace=wrap;html=1;align=center;" vertex="1" parent="1">
          <mxGeometry x="960" y="80" width="120" height="60" as="geometry" />
        </mxCell>
        <mxCell id="L0dqfXICZT49HhjWpMW9-2" value="Manages" style="shape=rhombus;perimeter=rhombusPerimeter;whiteSpace=wrap;html=1;align=center;" vertex="1" parent="1">
          <mxGeometry x="960" y="290" width="120" height="60" as="geometry" />
        </mxCell>
        <mxCell id="L0dqfXICZT49HhjWpMW9-3" value="" style="shape=link;html=1;rounded=0;" edge="1" parent="1" source="DGyCyMm6i7E1QIW6mR5m-5" target="L0dqfXICZT49HhjWpMW9-1">
          <mxGeometry relative="1" as="geometry">
            <mxPoint x="720" y="200" as="sourcePoint" />
            <mxPoint x="880" y="200" as="targetPoint" />
          </mxGeometry>
        </mxCell>
        <mxCell id="L0dqfXICZT49HhjWpMW9-4" value="N" style="resizable=0;html=1;whiteSpace=wrap;align=right;verticalAlign=bottom;" connectable="0" vertex="1" parent="L0dqfXICZT49HhjWpMW9-3">
          <mxGeometry x="1" relative="1" as="geometry" />
        </mxCell>
        <mxCell id="L0dqfXICZT49HhjWpMW9-5" value="" style="shape=link;html=1;rounded=0;" edge="1" parent="1" source="LaG2kn6Hpm8LccnMGh0O-3" target="L0dqfXICZT49HhjWpMW9-1">
          <mxGeometry relative="1" as="geometry">
            <mxPoint x="1660" y="160" as="sourcePoint" />
            <mxPoint x="1500" y="160" as="targetPoint" />
          </mxGeometry>
        </mxCell>
        <mxCell id="L0dqfXICZT49HhjWpMW9-6" value="1" style="resizable=0;html=1;whiteSpace=wrap;align=right;verticalAlign=bottom;" connectable="0" vertex="1" parent="L0dqfXICZT49HhjWpMW9-5">
          <mxGeometry x="1" relative="1" as="geometry" />
        </mxCell>
        <mxCell id="L0dqfXICZT49HhjWpMW9-8" value="" style="endArrow=none;html=1;rounded=0;" edge="1" parent="1" source="DGyCyMm6i7E1QIW6mR5m-5" target="L0dqfXICZT49HhjWpMW9-2">
          <mxGeometry relative="1" as="geometry">
            <mxPoint x="670" y="260" as="sourcePoint" />
            <mxPoint x="830" y="260" as="targetPoint" />
          </mxGeometry>
        </mxCell>
        <mxCell id="L0dqfXICZT49HhjWpMW9-9" value="1" style="resizable=0;html=1;whiteSpace=wrap;align=right;verticalAlign=bottom;" connectable="0" vertex="1" parent="L0dqfXICZT49HhjWpMW9-8">
          <mxGeometry x="1" relative="1" as="geometry" />
        </mxCell>
        <mxCell id="L0dqfXICZT49HhjWpMW9-10" value="" style="shape=link;html=1;rounded=0;" edge="1" parent="1" source="LaG2kn6Hpm8LccnMGh0O-3" target="L0dqfXICZT49HhjWpMW9-2">
          <mxGeometry relative="1" as="geometry">
            <mxPoint x="1320" y="270" as="sourcePoint" />
            <mxPoint x="1160" y="270" as="targetPoint" />
          </mxGeometry>
        </mxCell>
        <mxCell id="L0dqfXICZT49HhjWpMW9-11" value="1" style="resizable=0;html=1;whiteSpace=wrap;align=right;verticalAlign=bottom;" connectable="0" vertex="1" parent="L0dqfXICZT49HhjWpMW9-10">
          <mxGeometry x="1" relative="1" as="geometry" />
        </mxCell>
        <mxCell id="L0dqfXICZT49HhjWpMW9-12" value="Supervision" style="shape=rhombus;perimeter=rhombusPerimeter;whiteSpace=wrap;html=1;align=center;" vertex="1" parent="1">
          <mxGeometry x="415" y="440" width="120" height="60" as="geometry" />
        </mxCell>
        <mxCell id="L0dqfXICZT49HhjWpMW9-16" value="" style="endArrow=none;html=1;rounded=0;entryX=1;entryY=0.5;entryDx=0;entryDy=0;" edge="1" parent="1" source="DGyCyMm6i7E1QIW6mR5m-5" target="L0dqfXICZT49HhjWpMW9-12">
          <mxGeometry relative="1" as="geometry">
            <mxPoint x="520" y="330" as="sourcePoint" />
            <mxPoint x="680" y="330" as="targetPoint" />
          </mxGeometry>
        </mxCell>
        <mxCell id="L0dqfXICZT49HhjWpMW9-17" value="N" style="resizable=0;html=1;whiteSpace=wrap;align=right;verticalAlign=bottom;" connectable="0" vertex="1" parent="L0dqfXICZT49HhjWpMW9-16">
          <mxGeometry x="1" relative="1" as="geometry" />
        </mxCell>
        <mxCell id="L0dqfXICZT49HhjWpMW9-18" value="" style="endArrow=none;html=1;rounded=0;entryX=0;entryY=0.5;entryDx=0;entryDy=0;" edge="1" parent="1" source="DGyCyMm6i7E1QIW6mR5m-5" target="L0dqfXICZT49HhjWpMW9-12">
          <mxGeometry relative="1" as="geometry">
            <mxPoint x="380" y="310" as="sourcePoint" />
            <mxPoint x="480" y="380" as="targetPoint" />
          </mxGeometry>
        </mxCell>
        <mxCell id="L0dqfXICZT49HhjWpMW9-19" value="1" style="resizable=0;html=1;whiteSpace=wrap;align=right;verticalAlign=bottom;" connectable="0" vertex="1" parent="L0dqfXICZT49HhjWpMW9-18">
          <mxGeometry x="1" relative="1" as="geometry" />
        </mxCell>
      </root>
    </mxGraphModel>
  </diagram>
</mxfile>
